<!-- LCV-200 reference: LaserCAD's own export of replies.json; Hershey strokes are not hand-traceable, so the IoU measures placement and height, not the font -->
<svg xmlns="http://www.w3.org/2000/svg" width="400mm" height="400mm" viewBox="0 0 400 400" fill="none">
<g data-layer="Cut" stroke="#ff0000" stroke-width="0.1" data-output="1" data-current="1">
<line x1="43.0000" y1="360.0000" x2="107.0000" y2="360.0000"/>
<path d="M 107.0000 360.0000 A 3.0000 3.0000 0 0 0 110.0000 357.0000"/>
<line x1="110.0000" y1="357.0000" x2="110.0000" y2="343.0000"/>
<path d="M 110.0000 343.0000 A 3.0000 3.0000 0 0 0 107.0000 340.0000"/>
<line x1="107.0000" y1="340.0000" x2="43.0000" y2="340.0000"/>
<path d="M 43.0000 340.0000 A 3.0000 3.0000 0 0 0 40.0000 343.0000"/>
<line x1="40.0000" y1="343.0000" x2="40.0000" y2="357.0000"/>
<path d="M 40.0000 357.0000 A 3.0000 3.0000 0 0 0 43.0000 360.0000"/>
<line x1="44.4444" y1="345.0000" x2="44.4444" y2="355.0000"/>
<line x1="44.4444" y1="355.0000" x2="55.5556" y2="355.0000"/>
<line x1="62.2222" y1="345.0000" x2="56.6667" y2="355.0000"/>
<line x1="62.2222" y1="345.0000" x2="67.7778" y2="355.0000"/>
<line x1="58.8889" y1="350.5556" x2="65.5556" y2="350.5556"/>
<line x1="80.0000" y1="347.2222" x2="78.8889" y2="345.0000"/>
<line x1="78.8889" y1="345.0000" x2="76.6667" y2="345.0000"/>
<line x1="76.6667" y1="345.0000" x2="72.2222" y2="346.1111"/>
<line x1="72.2222" y1="346.1111" x2="70.0000" y2="347.2222"/>
<line x1="70.0000" y1="347.2222" x2="70.0000" y2="348.3333"/>
<line x1="70.0000" y1="348.3333" x2="72.2222" y2="349.4444"/>
<line x1="72.2222" y1="349.4444" x2="76.6667" y2="350.5556"/>
<line x1="76.6667" y1="350.5556" x2="78.8889" y2="351.6667"/>
<line x1="78.8889" y1="351.6667" x2="78.8889" y2="352.7778"/>
<line x1="78.8889" y1="352.7778" x2="76.6667" y2="353.8889"/>
<line x1="76.6667" y1="353.8889" x2="72.2222" y2="355.0000"/>
<line x1="72.2222" y1="355.0000" x2="70.0000" y2="355.0000"/>
<line x1="70.0000" y1="355.0000" x2="68.8889" y2="352.7778"/>
<line x1="80.0000" y1="345.0000" x2="80.0000" y2="355.0000"/>
<line x1="80.0000" y1="355.0000" x2="91.1111" y2="355.0000"/>
<line x1="80.0000" y1="350.5556" x2="86.6667" y2="350.5556"/>
<line x1="80.0000" y1="345.0000" x2="91.1111" y2="345.0000"/>
<line x1="92.2222" y1="345.0000" x2="92.2222" y2="355.0000"/>
<line x1="92.2222" y1="345.0000" x2="101.1111" y2="345.0000"/>
<line x1="101.1111" y1="345.0000" x2="103.3333" y2="346.1111"/>
<line x1="103.3333" y1="346.1111" x2="103.3333" y2="349.4444"/>
<line x1="103.3333" y1="349.4444" x2="101.1111" y2="350.5556"/>
<line x1="101.1111" y1="350.5556" x2="92.2222" y2="350.5556"/>
<line x1="96.6667" y1="350.5556" x2="103.3333" y2="355.0000"/>
</g>
</svg>