<?xml version="1.0" encoding="UTF-8"?>
<!-- LCV-200 reference: 12-tooth gear at (200, 200), root r25, tip r30, r5 bore -->
<svg xmlns="http://www.w3.org/2000/svg" width="400mm" height="400mm" viewBox="0 0 400 400" fill="none">
  <g stroke="#000000" stroke-width="0.1">
    <line x1="224.709" y1="203.803" x2="229.936" y2="201.962"/>
    <line x1="229.936" y1="201.962" x2="229.936" y2="198.038"/>
    <line x1="229.936" y1="198.038" x2="224.709" y2="196.197"/>
    <line x1="224.709" y1="196.197" x2="223.3" y2="190.939"/>
    <line x1="223.3" y1="190.939" x2="226.906" y2="186.731"/>
    <line x1="226.906" y1="186.731" x2="224.944" y2="183.333"/>
    <line x1="224.944" y1="183.333" x2="219.497" y2="184.352"/>
    <line x1="219.497" y1="184.352" x2="215.648" y2="180.503"/>
    <line x1="215.648" y1="180.503" x2="216.667" y2="175.056"/>
    <line x1="216.667" y1="175.056" x2="213.269" y2="173.094"/>
    <line x1="213.269" y1="173.094" x2="209.061" y2="176.7"/>
    <line x1="209.061" y1="176.7" x2="203.803" y2="175.291"/>
    <line x1="203.803" y1="175.291" x2="201.962" y2="170.064"/>
    <line x1="201.962" y1="170.064" x2="198.038" y2="170.064"/>
    <line x1="198.038" y1="170.064" x2="196.197" y2="175.291"/>
    <line x1="196.197" y1="175.291" x2="190.939" y2="176.7"/>
    <line x1="190.939" y1="176.7" x2="186.731" y2="173.094"/>
    <line x1="186.731" y1="173.094" x2="183.333" y2="175.056"/>
    <line x1="183.333" y1="175.056" x2="184.352" y2="180.503"/>
    <line x1="184.352" y1="180.503" x2="180.503" y2="184.352"/>
    <line x1="180.503" y1="184.352" x2="175.056" y2="183.333"/>
    <line x1="175.056" y1="183.333" x2="173.094" y2="186.731"/>
    <line x1="173.094" y1="186.731" x2="176.7" y2="190.939"/>
    <line x1="176.7" y1="190.939" x2="175.291" y2="196.197"/>
    <line x1="175.291" y1="196.197" x2="170.064" y2="198.038"/>
    <line x1="170.064" y1="198.038" x2="170.064" y2="201.962"/>
    <line x1="170.064" y1="201.962" x2="175.291" y2="203.803"/>
    <line x1="175.291" y1="203.803" x2="176.7" y2="209.061"/>
    <line x1="176.7" y1="209.061" x2="173.094" y2="213.269"/>
    <line x1="173.094" y1="213.269" x2="175.056" y2="216.667"/>
    <line x1="175.056" y1="216.667" x2="180.503" y2="215.648"/>
    <line x1="180.503" y1="215.648" x2="184.352" y2="219.497"/>
    <line x1="184.352" y1="219.497" x2="183.333" y2="224.944"/>
    <line x1="183.333" y1="224.944" x2="186.731" y2="226.906"/>
    <line x1="186.731" y1="226.906" x2="190.939" y2="223.3"/>
    <line x1="190.939" y1="223.3" x2="196.197" y2="224.709"/>
    <line x1="196.197" y1="224.709" x2="198.038" y2="229.936"/>
    <line x1="198.038" y1="229.936" x2="201.962" y2="229.936"/>
    <line x1="201.962" y1="229.936" x2="203.803" y2="224.709"/>
    <line x1="203.803" y1="224.709" x2="209.061" y2="223.3"/>
    <line x1="209.061" y1="223.3" x2="213.269" y2="226.906"/>
    <line x1="213.269" y1="226.906" x2="216.667" y2="224.944"/>
    <line x1="216.667" y1="224.944" x2="215.648" y2="219.497"/>
    <line x1="215.648" y1="219.497" x2="219.497" y2="215.648"/>
    <line x1="219.497" y1="215.648" x2="224.944" y2="216.667"/>
    <line x1="224.944" y1="216.667" x2="226.906" y2="213.269"/>
    <line x1="226.906" y1="213.269" x2="223.3" y2="209.061"/>
    <line x1="223.3" y1="209.061" x2="224.709" y2="203.803"/>
    <circle cx="200" cy="200" r="5"/>
  </g>
</svg>
